<svg xmlns="http://www.w3.org/2000/svg" width="87.268" height="71.34" viewBox="0 0 87.268 71.34"><g transform="translate(0.35 0.398)"><path d="M72.159,25.724l.02-.011a5.509,5.509,0,0,0,1.966-7.329c-4.751-8.221-14.49-14.012-25.169-16.54S26.786.076,18.543,4.83C2,14.371-4.742,36.756,4.791,53.253c4.747,8.214,14.394,13.526,24.74,15.72s21.276,1.244,28.517-2.933c9.183-5.3,12.376-15.5,7.095-24.636l-.025-.044-.014-.048a33.747,33.747,0,0,1-1.216-5.026,6.133,6.133,0,0,1,.433-3.518,9.6,9.6,0,0,1,2.59-3.056c1.242-1.065,2.912-2.283,5.068-3.855Zm.232.356a5.933,5.933,0,0,0,2.121-7.909C64.854,1.458,35.059-5.186,18.331,4.463s-23.566,32.289-13.908,49S43.539,74.9,58.26,66.407c9.368-5.4,12.659-15.856,7.25-25.216-2.451-8.305-1.943-8.676,6.734-15Z" transform="translate(0 0)" fill="#313131" stroke="#313131" stroke-width="0.5" fill-rule="evenodd"/><path d="M639.893,117.508a73.871,73.871,0,0,0,5.47-7.737c6.4-10.519,9.741-20.169,8.272-21.063s-8.545,6.484-14.945,17a71.6,71.6,0,0,0-4.338,8.426l2.561,2.133Z" transform="translate(-567.059 -79.232)" fill="#f33f3f"/><path d="M558.916,402.008a9.643,9.643,0,0,1-.8,3.7c-1.976,4.54-6.85,6.189-8.275,6.582-.151.042-.241-.127-.148-.278a13.868,13.868,0,0,0,1.948-4.818c.371-2.006.017-3.082.779-4.507A6.383,6.383,0,0,1,555.608,400l1.8.592Z" transform="translate(-491.35 -357.563)" fill="#a7683a"/><path d="M552.421,402.686c-.761,1.424-.408,2.5-.779,4.507a13.867,13.867,0,0,1-1.948,4.818c-.093.15,0,.32.147.278a15.363,15.363,0,0,0,2.955-1.177,12.554,12.554,0,0,0,.839-2.707c.371-2.006.017-3.083.779-4.507a3.674,3.674,0,0,1,4.5-1.891l-1.508-1.421-1.8-.592A6.386,6.386,0,0,0,552.421,402.686Z" transform="translate(-491.348 -357.562)" fill="rgba(0,0,0,0.1)"/><path d="M636.311,115.33a71.627,71.627,0,0,1,4.337-8.426c5.025-8.26,10.467-14.582,13.284-16.484.111-.921.018-1.518-.3-1.71-1.47-.894-8.545,6.484-14.945,17a71.621,71.621,0,0,0-4.337,8.426l.842.8Z" transform="translate(-567.059 -79.233)" fill="rgba(0,0,0,0.1)"/><path d="M608.781,329.041c-1.273,2.9-2.247,5.51-3.035,7.527l3.309,2.013c1.429-1.627,3.291-3.7,5.267-6.169Z" transform="translate(-541.488 -294.136)" fill="#ffdc61"/><path d="M605.746,336.569l1.958,1.192c.788-2.017,1.762-4.63,3.035-7.527l-1.958-1.192c-1.121,2.55-2.009,4.88-2.743,6.777Z" transform="translate(-541.488 -294.137)" fill="rgba(0,0,0,0.1)"/><circle cx="4.137" cy="4.137" r="4.137" transform="translate(46.473 56.852)" fill="#f33f3f"/><circle cx="4.137" cy="4.137" r="4.137" transform="translate(33.531 57.701)" fill="#ffdc61"/><circle cx="4.137" cy="4.137" r="4.137" transform="translate(20.548 56.011)" fill="#4e5fff"/><circle cx="4.137" cy="4.137" r="4.137" transform="translate(14.247 9.024)" fill="#f3953f"/><circle cx="4.137" cy="4.137" r="4.137" transform="translate(25.64 3.713)" fill="#85f07c"/><path d="M418.512,192.07h.028c5.351.061,6.984,9,7.351,13.472.087,1.361-.575,3.586-3.537.743.508,3.432,1.173,6.889,1.327,7.214a4.117,4.117,0,0,1-1.658.636c.387,2.829.619,8.487-1.548,8.487-1.682,0-2.254-2.038-2.373-3.764-.119,1.726-.691,3.764-2.373,3.764-2.167,0-1.934-5.658-1.548-8.487a4.117,4.117,0,0,1-1.658-.636c.154-.324.819-3.782,1.327-7.214-2.963,2.843-3.624.619-3.537-.743.367-4.475,2.817-13.411,8.173-13.472h.028Z" transform="translate(-366.778 -171.695)" fill="#313131"/><circle cx="4.137" cy="4.137" r="4.137" transform="translate(47.663 11.358)" fill="#313131"/><path d="M416.887,330.07a.583.583,0,0,1,.583.583V345.4a.583.583,0,1,1-1.167,0V330.653A.584.584,0,0,1,416.887,330.07Z" transform="translate(-372.141 -295.056)" fill="#313131" fill-rule="evenodd"/><path d="M570.189,137.57a4.422,4.422,0,0,1-3.3-.02.847.847,0,0,0,.154-.228,4.154,4.154,0,0,0,2.987.022A.847.847,0,0,0,570.189,137.57Zm1.384-.88a4.393,4.393,0,0,0,1.394-3.215q0-.218-.021-.431a.838.838,0,0,1-.265.06q.016.183.016.371a4.124,4.124,0,0,1-1.26,2.973A.833.833,0,0,1,571.573,136.691Zm-5.925-.279a.843.843,0,0,0-.148.232,4.393,4.393,0,0,1-1.345-3.169q0-.218.021-.431a.84.84,0,0,0,.265.06q-.016.183-.017.371A4.123,4.123,0,0,0,565.648,136.412Zm6.821-4.972a4.407,4.407,0,0,0-7.816,0,.833.833,0,0,1,.254.094,4.138,4.138,0,0,1,7.307,0A.834.834,0,0,1,572.469,131.44Z" transform="translate(-504.309 -115.378)" fill="#313131" fill-rule="evenodd"/><path d="M570.749,159.648a7.4,7.4,0,0,1-3.948-1.224l-.141.229a7.742,7.742,0,0,0,3.887,1.261l-2.124,3.218.225.148,2.107-3.192,2.13,3.226.224-.148-2.146-3.251a7.557,7.557,0,0,0,4-1.263l-.146-.226A7.285,7.285,0,0,1,570.749,159.648Z" transform="translate(-506.548 -141.618)" fill="#313131"/><path d="M596.693,141.377a1.211,1.211,0,1,1-1.211-1.211A1.211,1.211,0,0,1,596.693,141.377Z" transform="translate(-531.231 -125.297)" fill="#4e5fff"/><path d="M595.483,142.318a.942.942,0,1,0-.942-.942A.942.942,0,0,0,595.483,142.318Zm0,.269a1.211,1.211,0,1,0-1.211-1.211A1.211,1.211,0,0,0,595.483,142.587Z" transform="translate(-531.231 -125.297)" fill="#313131" fill-rule="evenodd"/><path d="M579.383,198.184a.639.639,0,1,1-.639-.639A.639.639,0,0,1,579.383,198.184Z" transform="translate(-516.779 -176.589)" fill="#4e5fff"/><path d="M578.744,198.554a.37.37,0,1,0-.37-.37A.37.37,0,0,0,578.744,198.554Zm0,.269a.639.639,0,1,0-.639-.639A.639.639,0,0,0,578.744,198.823Z" transform="translate(-516.779 -176.589)" fill="#313131" fill-rule="evenodd"/><path d="M621.862,198.184a.639.639,0,1,1-.639-.639A.639.639,0,0,1,621.862,198.184Z" transform="translate(-554.751 -176.589)" fill="#4e5fff"/><path d="M621.223,198.554a.37.37,0,1,0-.37-.37A.37.37,0,0,0,621.223,198.554Zm0,.269a.639.639,0,1,0-.639-.639A.639.639,0,0,0,621.223,198.823Z" transform="translate(-554.751 -176.589)" fill="#313131" fill-rule="evenodd"/><path d="M639.3,153.8a.639.639,0,1,1-.639-.639A.639.639,0,0,1,639.3,153.8Z" transform="translate(-570.338 -136.915)" fill="#4e5fff"/><path d="M638.659,154.172a.37.37,0,1,0-.37-.37A.37.37,0,0,0,638.659,154.172Zm0,.269a.639.639,0,1,0-.639-.639A.639.639,0,0,0,638.659,154.441Z" transform="translate(-570.338 -136.915)" fill="#313131" fill-rule="evenodd"/><path d="M562.581,153.8a.639.639,0,1,1-.639-.639A.639.639,0,0,1,562.581,153.8Z" transform="translate(-501.759 -136.915)" fill="#4e5fff"/><path d="M561.942,154.172a.37.37,0,1,0-.37-.37A.37.37,0,0,0,561.942,154.172Zm0,.269a.639.639,0,1,0-.639-.639A.639.639,0,0,0,561.942,154.441Z" transform="translate(-501.759 -136.915)" fill="#313131" fill-rule="evenodd"/><path d="M323.96,320.323c-2.5-.139-5.14,1.056-5.14,9.169.009.837.447,2.091,2.121.417.026,4.11.666,9.71,3.047,6.325,2.908,2.878,3-1.926,2.636-5.155a1.353,1.353,0,0,0,2.014-1.031C328.807,327.1,328.036,320.323,323.96,320.323Z" transform="translate(-284.999 -286.334)" fill="#313131"/><circle cx="2.964" cy="2.964" r="2.964" transform="translate(35.766 27.589)" fill="#313131"/><path d="M227.3,336.892c0-7.708,2.634-8.843,5.129-8.711,4.066,0,4.836,6.438,4.667,9.239-.228,1.3-1.525.123-2.063-.132l-2.732,1.719-.972-.787-.695-1.112-1.218.179C227.749,338.879,227.312,337.687,227.3,336.892Zm2.249,3.232c.286,3.086,1.086,5.639,2.908,3.173,2.394,2.256,2.873-.458,2.765-3.2A27.949,27.949,0,0,1,229.552,340.124Z" transform="translate(-203.19 -293.358)" fill="#313131" fill-rule="evenodd"/><path d="M240.959,414.115l0,.016c-.126.846-.394,2.639-.725,2.676-.108.012.227.079.859.144C241,416.013,240.965,415.025,240.959,414.115Z" transform="translate(-214.73 -370.185)" fill="#313131"/><path d="M252.872,412.6l-2.732,1.719-.972-.787-.695-1.112-1.218.179c.006.91.045,1.9.132,2.836a27.944,27.944,0,0,0,5.673-.026c.291-.033.585-.072.877-.118A8.092,8.092,0,0,1,252.872,412.6Z" transform="translate(-221.026 -368.673)" fill="#313131"/><circle cx="2.964" cy="2.964" r="2.964" transform="translate(26.058 28.33)" fill="#313131"/><path d="M63.2,313.585l-1.644.424,2.069,4.4-.8,1.8A8.59,8.59,0,0,1,58.7,313.16a3.886,3.886,0,0,1,2.387-2.97c2.334-1.167,5.835-1.8,6.63-.212.636,1.273,2.175,4.3,3.023,5.675,2.079-.849,3.907,1.238,4.561,2.387,1.485,2.139,3.989,6.513,2.122,6.9s-4.243-3.483-5.2-5.463a4.651,4.651,0,0,1-4.827.743C65.358,319.239,63.752,315.388,63.2,313.585Z" transform="translate(-52.469 -276.244)" fill="#313131"/><circle cx="3.076" cy="3.076" r="3.076" transform="translate(9.568 25.778)" fill="#313131"/><path d="M101.242,378.093a6.047,6.047,0,1,0-6.047-6.047A6.047,6.047,0,0,0,101.242,378.093Zm0-2.243a3.8,3.8,0,1,0-3.8-3.8A3.8,3.8,0,0,0,101.242,375.85Z" transform="translate(-85.097 -327.174)" fill="#313131" fill-rule="evenodd"/></g></svg>